<!DOCTYPE svg PUBLIC "-//W3C//DTD SVG 20010904//EN" "http://www.w3.org/TR/2001/REC-SVG-20010904/DTD/svg10.dtd">
<svg version="1.0" xmlns="http://www.w3.org/2000/svg" width="768px" height="478px" viewBox="0 0 7680 4780" preserveAspectRatio="xMidYMid meet">
<g id="layer101" fill="#65331f" stroke="none">
</g>
<g id="layer102" fill="#867426" stroke="none">
</g>
<g id="layer103" fill="#a95534" stroke="none">
<path d="M0 2390 l0 -2390 3840 0 3840 0 0 2390 0 2390 -3840 0 -3840 0 0 -2390z"/>
</g>
<g id="layer104" fill="#dfc13f" stroke="none">
<path d="M0 2390 l0 -2390 3840 0 3840 0 0 2390 0 2390 -3840 0 -3840 0 0 -2390z m480 1873 c46 -92 92 -175 102 -185 13 -13 33 -18 71 -18 48 0 54 -3 75 -33 36 -54 27 -67 -50 -67 -34 0 -39 -3 -34 -17 17 -45 118 -213 128 -213 6 0 8 -3 5 -6 -4 -4 1 -19 9 -33 11 -19 32 -31 72 -43 74 -22 138 -75 128 -106 -15 -47 -102 -36 -178 24 -54 41 -111 58 -266 79 -189 25 -279 17 -227 -21 26 -20 16 -24 -30 -14 -40 9 -75 40 -75 66 0 31 45 65 95 72 57 8 188 -2 289 -23 38 -8 71 -13 73 -11 2 1 -18 39 -44 84 -27 44 -60 103 -74 129 l-27 49 -92 13 c-120 17 -147 27 -165 62 -13 24 -21 69 -12 69 1 0 37 -7 80 -15 141 -27 137 -36 52 128 -41 79 -75 156 -75 170 0 25 3 27 43 27 l43 0 84 -167z m396 111 c19 -9 59 -43 89 -76 51 -55 55 -57 55 -33 0 97 96 126 177 53 21 -20 21 -20 52 3 25 19 38 21 85 16 105 -11 236 -95 248 -159 12 -65 -28 -95 -153 -114 -50 -7 -94 -16 -97 -19 -10 -10 68 -81 111 -102 69 -34 86 -37 80 -14 -7 27 28 36 66 16 41 -21 65 -58 57 -90 -15 -58 -87 -57 -215 5 -93 45 -165 111 -180 165 -19 71 15 105 124 119 87 12 105 17 105 32 0 20 -53 50 -112 64 -58 14 -72 6 -90 -51 -6 -22 -14 -39 -17 -39 -3 0 -33 30 -68 67 -59 64 -64 67 -80 51 -15 -16 -15 -22 5 -103 11 -48 35 -117 53 -155 17 -38 29 -76 26 -85 -8 -20 -61 -20 -77 0 -9 11 -16 12 -26 4 -17 -14 -114 -8 -134 8 -8 7 -34 26 -57 43 -65 46 -128 133 -153 211 -28 86 -21 138 22 174 34 29 57 31 104 9z m934 -99 c14 -7 49 -39 79 -70 47 -50 53 -60 47 -87 -3 -18 -9 -34 -11 -37 -3 -3 -31 20 -63 51 -98 95 -127 101 -120 26 5 -54 34 -135 115 -314 l45 -102 81 -16 c45 -9 88 -23 97 -32 13 -14 12 -18 -12 -39 -22 -19 -34 -22 -68 -18 l-42 6 21 -41 c33 -65 25 -86 -29 -72 -17 4 -36 25 -60 67 l-35 61 -70 11 c-59 8 -75 15 -97 41 -51 56 -32 79 53 61 29 -6 54 -10 56 -8 2 2 -19 51 -46 108 -129 275 -139 389 -37 418 33 10 56 6 96 -14z m235 -27 c28 -33 33 -83 10 -92 -54 -20 -136 87 -91 119 23 18 52 8 81 -27z m844 -255 l94 -183 58 0 c54 0 60 -2 85 -35 36 -48 27 -65 -36 -65 -27 0 -50 -4 -50 -8 0 -7 112 -207 149 -267 8 -12 37 -28 69 -37 109 -33 166 -109 100 -132 -38 -13 -93 5 -155 52 -42 31 -68 41 -140 55 -174 33 -326 44 -353 27 -13 -9 -11 -13 10 -30 l25 -20 -23 0 c-38 0 -91 28 -103 54 -16 34 8 70 57 86 47 16 198 8 308 -15 43 -9 80 -14 82 -12 3 2 -13 33 -34 68 -21 35 -54 92 -72 127 -21 40 -40 64 -54 66 -12 3 -57 10 -101 17 -109 16 -121 22 -144 67 -29 57 -18 64 65 48 105 -21 134 -26 134 -22 0 2 -34 68 -75 148 -93 179 -96 202 -25 196 35 -3 36 -4 129 -185z m334 57 c50 -84 184 -257 232 -300 l28 -25 -17 32 c-20 40 -21 77 -1 93 27 22 49 5 87 -70 43 -85 48 -124 17 -141 -39 -21 -85 -2 -155 64 l-66 61 16 -38 c9 -21 16 -47 16 -57 0 -29 -46 -24 -79 9 -24 24 -201 396 -201 422 0 11 35 29 60 29 8 0 37 -36 63 -79z m515 0 c68 -47 137 -133 181 -225 59 -122 62 -185 9 -199 -13 -4 -40 -12 -60 -18 -57 -17 -117 11 -194 88 -125 127 -170 299 -98 371 22 22 32 25 70 20 28 -3 63 -17 92 -37z m-1630 -6 c18 -5 57 -75 190 -337 92 -182 169 -335 170 -339 2 -4 -17 -8 -42 -8 -45 0 -47 2 -80 53 -104 163 -284 530 -293 598 -6 42 2 47 55 33z m2097 -43 l170 -49 27 23 c53 45 143 41 236 -10 34 -19 48 -22 68 -15 44 17 53 11 101 -62 83 -130 234 -318 254 -318 5 0 -8 35 -30 78 -41 81 -71 170 -71 208 0 31 44 81 76 87 15 3 42 0 60 -7 34 -11 127 -94 145 -128 10 -18 3 -78 -8 -78 -3 0 -33 29 -67 65 -46 49 -68 65 -89 65 -46 0 -37 -49 38 -197 36 -70 65 -137 65 -149 0 -11 -9 -29 -20 -39 -31 -28 -90 -6 -162 62 -55 53 -57 54 -47 25 6 -18 14 -32 19 -32 4 0 5 -11 2 -25 -3 -17 -11 -25 -26 -25 -42 0 -68 33 -132 165 -56 117 -70 139 -126 190 -35 31 -74 63 -88 70 -41 21 -96 28 -120 15 -45 -24 -17 -59 134 -163 14 -9 17 -19 11 -36 -7 -24 -10 -25 -99 -5 -25 6 -27 5 -19 -10 11 -20 101 -96 114 -96 5 0 9 7 9 15 0 30 60 11 92 -29 40 -49 8 -94 -60 -81 -55 10 -148 61 -192 105 -48 48 -61 100 -36 144 17 29 17 30 -6 48 -13 10 -46 29 -74 42 -61 29 -274 97 -274 87 0 -22 90 -133 192 -235 65 -66 118 -122 118 -126 0 -3 -6 -15 -14 -25 -14 -19 -16 -19 -82 -2 -38 10 -109 24 -157 32 -49 7 -99 21 -113 29 -23 16 -42 61 -30 73 3 3 48 -1 99 -10 51 -10 97 -17 101 -17 5 0 -27 38 -72 84 -44 46 -93 103 -108 127 -16 24 -31 46 -34 49 -12 11 -30 62 -30 83 0 61 37 60 255 -2z m1134 -84 c20 -17 42 -73 35 -91 -18 -47 -114 11 -114 69 0 18 3 35 7 39 9 9 53 -2 72 -17z m853 -262 c48 -93 89 -174 91 -179 2 -5 31 -11 65 -14 56 -4 64 -7 88 -40 26 -34 27 -35 8 -49 -11 -9 -36 -13 -61 -11 -24 2 -43 1 -43 -1 0 -6 68 -127 121 -216 47 -79 49 -80 106 -97 75 -22 139 -77 124 -106 -25 -46 -95 -37 -176 23 -52 39 -68 45 -169 64 -124 24 -304 38 -333 27 -17 -7 -17 -9 4 -26 29 -23 21 -30 -23 -20 -84 19 -101 90 -31 127 51 26 242 14 396 -24 13 -3 22 -2 19 3 -3 5 -24 39 -46 76 -23 37 -55 94 -72 128 -24 48 -35 60 -54 60 -13 0 -63 7 -112 15 -95 16 -127 37 -140 92 -7 27 12 48 31 33 12 -10 164 -35 171 -28 2 3 -30 73 -72 155 -87 169 -89 186 -22 181 l43 -3 87 -170z m465 93 c47 -33 49 -34 63 -16 22 28 80 38 121 21 19 -8 60 -39 92 -71 58 -57 69 -87 47 -122 -8 -12 -20 -4 -65 43 -55 57 -97 83 -117 71 -28 -17 15 -153 117 -370 l43 -92 58 -12 c85 -16 106 -24 118 -42 17 -28 -30 -59 -78 -52 -36 6 -38 5 -31 -17 4 -13 14 -36 21 -50 16 -32 10 -39 -32 -39 -31 0 -37 6 -70 64 l-37 63 -63 10 c-59 8 -64 8 -64 -9 0 -28 -28 -33 -66 -13 -35 19 -59 63 -50 92 9 28 77 45 132 33 26 -6 48 -9 50 -7 2 2 -18 53 -45 113 -27 60 -59 140 -72 178 -31 90 -110 179 -155 174 -39 -4 -37 -15 41 -192 36 -81 65 -155 65 -166 0 -29 -37 -45 -69 -29 -14 7 -30 11 -36 10 -5 -2 -7 1 -3 5 4 4 -6 22 -22 41 -32 36 -36 53 -19 70 8 8 0 35 -29 99 -70 156 -72 189 -15 234 41 32 106 24 170 -22z m437 -29 c29 -34 35 -86 12 -95 -41 -16 -111 61 -99 106 8 32 56 26 87 -11z m-1667 -37 c19 -15 343 -642 343 -665 0 -4 -19 -7 -42 -5 -40 3 -46 7 -80 58 -50 74 -262 492 -283 558 -20 63 -15 86 17 77 13 -4 33 -14 45 -23z m1755 -181 c8 -7 338 -660 338 -668 0 -2 -21 -3 -46 -1 -46 3 -47 4 -92 78 -66 109 -227 424 -257 503 -14 37 -25 77 -25 88 0 19 4 21 38 14 20 -3 40 -10 44 -14z"/>
</g>
<g id="layer105" fill="#ffffff" stroke="none">
<path d="M0 2390 l0 -2390 3840 0 3840 0 0 2390 0 2390 -3840 0 -3840 0 0 -2390z m480 1873 c46 -92 92 -175 102 -185 13 -13 33 -18 71 -18 48 0 54 -3 75 -33 36 -54 27 -67 -50 -67 -34 0 -39 -3 -34 -17 17 -45 118 -213 128 -213 6 0 8 -3 5 -6 -4 -4 1 -19 9 -33 11 -19 32 -31 72 -43 74 -22 138 -75 128 -106 -15 -47 -102 -36 -178 24 -54 41 -111 58 -266 79 -189 25 -279 17 -227 -21 26 -20 16 -24 -30 -14 -40 9 -75 40 -75 66 0 31 45 65 95 72 57 8 188 -2 289 -23 38 -8 71 -13 73 -11 2 1 -18 39 -44 84 -27 44 -60 103 -74 129 l-27 49 -92 13 c-120 17 -147 27 -165 62 -13 24 -21 69 -12 69 1 0 37 -7 80 -15 141 -27 137 -36 52 128 -41 79 -75 156 -75 170 0 25 3 27 43 27 l43 0 84 -167z m396 111 c19 -9 59 -43 89 -76 51 -55 55 -57 55 -33 0 97 96 126 177 53 21 -20 21 -20 52 3 25 19 38 21 85 16 105 -11 236 -95 248 -159 12 -65 -28 -95 -153 -114 -50 -7 -94 -16 -97 -19 -10 -10 68 -81 111 -102 69 -34 86 -37 80 -14 -7 27 28 36 66 16 41 -21 65 -58 57 -90 -15 -58 -87 -57 -215 5 -93 45 -165 111 -180 165 -19 71 15 105 124 119 87 12 105 17 105 32 0 20 -53 50 -112 64 -58 14 -72 6 -90 -51 -6 -22 -14 -39 -17 -39 -3 0 -33 30 -68 67 -59 64 -64 67 -80 51 -15 -16 -15 -22 5 -103 11 -48 35 -117 53 -155 17 -38 29 -76 26 -85 -8 -20 -61 -20 -77 0 -9 11 -16 12 -26 4 -17 -14 -114 -8 -134 8 -8 7 -34 26 -57 43 -65 46 -128 133 -153 211 -28 86 -21 138 22 174 34 29 57 31 104 9z m934 -99 c14 -7 49 -39 79 -70 47 -50 53 -60 47 -87 -3 -18 -9 -34 -11 -37 -3 -3 -31 20 -63 51 -98 95 -127 101 -120 26 5 -54 34 -135 115 -314 l45 -102 81 -16 c45 -9 88 -23 97 -32 13 -14 12 -18 -12 -39 -22 -19 -34 -22 -68 -18 l-42 6 21 -41 c33 -65 25 -86 -29 -72 -17 4 -36 25 -60 67 l-35 61 -70 11 c-59 8 -75 15 -97 41 -51 56 -32 79 53 61 29 -6 54 -10 56 -8 2 2 -19 51 -46 108 -129 275 -139 389 -37 418 33 10 56 6 96 -14z m235 -27 c28 -33 33 -83 10 -92 -54 -20 -136 87 -91 119 23 18 52 8 81 -27z m844 -255 l94 -183 58 0 c54 0 60 -2 85 -35 36 -48 27 -65 -36 -65 -27 0 -50 -4 -50 -8 0 -7 112 -207 149 -267 8 -12 37 -28 69 -37 109 -33 166 -109 100 -132 -38 -13 -93 5 -155 52 -42 31 -68 41 -140 55 -174 33 -326 44 -353 27 -13 -9 -11 -13 10 -30 l25 -20 -23 0 c-38 0 -91 28 -103 54 -16 34 8 70 57 86 47 16 198 8 308 -15 43 -9 80 -14 82 -12 3 2 -13 33 -34 68 -21 35 -54 92 -72 127 -21 40 -40 64 -54 66 -12 3 -57 10 -101 17 -109 16 -121 22 -144 67 -29 57 -18 64 65 48 105 -21 134 -26 134 -22 0 2 -34 68 -75 148 -93 179 -96 202 -25 196 35 -3 36 -4 129 -185z m334 57 c50 -84 184 -257 232 -300 l28 -25 -17 32 c-20 40 -21 77 -1 93 27 22 49 5 87 -70 43 -85 48 -124 17 -141 -39 -21 -85 -2 -155 64 l-66 61 16 -38 c9 -21 16 -47 16 -57 0 -29 -46 -24 -79 9 -24 24 -201 396 -201 422 0 11 35 29 60 29 8 0 37 -36 63 -79z m515 0 c68 -47 137 -133 181 -225 59 -122 62 -185 9 -199 -13 -4 -40 -12 -60 -18 -57 -17 -117 11 -194 88 -125 127 -170 299 -98 371 22 22 32 25 70 20 28 -3 63 -17 92 -37z m-1630 -6 c18 -5 57 -75 190 -337 92 -182 169 -335 170 -339 2 -4 -17 -8 -42 -8 -45 0 -47 2 -80 53 -104 163 -284 530 -293 598 -6 42 2 47 55 33z m2097 -43 l170 -49 27 23 c53 45 143 41 236 -10 34 -19 48 -22 68 -15 44 17 53 11 101 -62 83 -130 234 -318 254 -318 5 0 -8 35 -30 78 -41 81 -71 170 -71 208 0 31 44 81 76 87 15 3 42 0 60 -7 34 -11 127 -94 145 -128 10 -18 3 -78 -8 -78 -3 0 -33 29 -67 65 -46 49 -68 65 -89 65 -46 0 -37 -49 38 -197 36 -70 65 -137 65 -149 0 -11 -9 -29 -20 -39 -31 -28 -90 -6 -162 62 -55 53 -57 54 -47 25 6 -18 14 -32 19 -32 4 0 5 -11 2 -25 -3 -17 -11 -25 -26 -25 -42 0 -68 33 -132 165 -56 117 -70 139 -126 190 -35 31 -74 63 -88 70 -41 21 -96 28 -120 15 -45 -24 -17 -59 134 -163 14 -9 17 -19 11 -36 -7 -24 -10 -25 -99 -5 -25 6 -27 5 -19 -10 11 -20 101 -96 114 -96 5 0 9 7 9 15 0 30 60 11 92 -29 40 -49 8 -94 -60 -81 -55 10 -148 61 -192 105 -48 48 -61 100 -36 144 17 29 17 30 -6 48 -13 10 -46 29 -74 42 -61 29 -274 97 -274 87 0 -22 90 -133 192 -235 65 -66 118 -122 118 -126 0 -3 -6 -15 -14 -25 -14 -19 -16 -19 -82 -2 -38 10 -109 24 -157 32 -49 7 -99 21 -113 29 -23 16 -42 61 -30 73 3 3 48 -1 99 -10 51 -10 97 -17 101 -17 5 0 -27 38 -72 84 -44 46 -93 103 -108 127 -16 24 -31 46 -34 49 -12 11 -30 62 -30 83 0 61 37 60 255 -2z m1134 -84 c20 -17 42 -73 35 -91 -18 -47 -114 11 -114 69 0 18 3 35 7 39 9 9 53 -2 72 -17z m853 -262 c48 -93 89 -174 91 -179 2 -5 31 -11 65 -14 56 -4 64 -7 88 -40 26 -34 27 -35 8 -49 -11 -9 -36 -13 -61 -11 -24 2 -43 1 -43 -1 0 -6 68 -127 121 -216 47 -79 49 -80 106 -97 75 -22 139 -77 124 -106 -25 -46 -95 -37 -176 23 -52 39 -68 45 -169 64 -124 24 -304 38 -333 27 -17 -7 -17 -9 4 -26 29 -23 21 -30 -23 -20 -84 19 -101 90 -31 127 51 26 242 14 396 -24 13 -3 22 -2 19 3 -3 5 -24 39 -46 76 -23 37 -55 94 -72 128 -24 48 -35 60 -54 60 -13 0 -63 7 -112 15 -95 16 -127 37 -140 92 -7 27 12 48 31 33 12 -10 164 -35 171 -28 2 3 -30 73 -72 155 -87 169 -89 186 -22 181 l43 -3 87 -170z m465 93 c47 -33 49 -34 63 -16 22 28 80 38 121 21 19 -8 60 -39 92 -71 58 -57 69 -87 47 -122 -8 -12 -20 -4 -65 43 -55 57 -97 83 -117 71 -28 -17 15 -153 117 -370 l43 -92 58 -12 c85 -16 106 -24 118 -42 17 -28 -30 -59 -78 -52 -36 6 -38 5 -31 -17 4 -13 14 -36 21 -50 16 -32 10 -39 -32 -39 -31 0 -37 6 -70 64 l-37 63 -63 10 c-59 8 -64 8 -64 -9 0 -28 -28 -33 -66 -13 -35 19 -59 63 -50 92 9 28 77 45 132 33 26 -6 48 -9 50 -7 2 2 -18 53 -45 113 -27 60 -59 140 -72 178 -31 90 -110 179 -155 174 -39 -4 -37 -15 41 -192 36 -81 65 -155 65 -166 0 -29 -37 -45 -69 -29 -14 7 -30 11 -36 10 -5 -2 -7 1 -3 5 4 4 -6 22 -22 41 -32 36 -36 53 -19 70 8 8 0 35 -29 99 -70 156 -72 189 -15 234 41 32 106 24 170 -22z m437 -29 c29 -34 35 -86 12 -95 -41 -16 -111 61 -99 106 8 32 56 26 87 -11z m-1667 -37 c19 -15 343 -642 343 -665 0 -4 -19 -7 -42 -5 -40 3 -46 7 -80 58 -50 74 -262 492 -283 558 -20 63 -15 86 17 77 13 -4 33 -14 45 -23z m1755 -181 c8 -7 338 -660 338 -668 0 -2 -21 -3 -46 -1 -46 3 -47 4 -92 78 -66 109 -227 424 -257 503 -14 37 -25 77 -25 88 0 19 4 21 38 14 20 -3 40 -10 44 -14z m-3237 -220 c149 -56 185 -81 330 -222 78 -76 151 -139 166 -142 39 -10 131 -82 171 -135 20 -26 54 -80 75 -119 33 -61 93 -128 358 -403 176 -181 323 -330 327 -330 4 0 7 -3 6 -7 -1 -5 14 -39 32 -78 26 -53 35 -87 39 -146 4 -42 12 -83 20 -93 20 -24 8 -90 -24 -132 -14 -19 -47 -49 -73 -67 -25 -17 -132 -117 -238 -221 -161 -158 -193 -195 -199 -225 -10 -56 -54 -127 -109 -179 -28 -26 -50 -50 -48 -55 1 -4 -1 -6 -6 -5 -4 2 -40 -12 -79 -30 -64 -30 -88 -50 -208 -174 -74 -78 -135 -147 -135 -153 0 -19 -74 -98 -122 -130 -23 -16 -64 -46 -90 -67 -25 -21 -72 -51 -105 -66 -51 -24 -69 -27 -153 -26 -166 1 -197 22 -506 343 -126 130 -391 404 -588 609 -197 204 -374 393 -393 419 -39 54 -73 156 -73 217 0 52 20 128 48 183 22 42 69 93 552 598 140 147 254 271 252 277 -1 5 2 7 7 4 5 -3 38 27 74 67 36 39 115 122 177 182 61 61 121 128 132 149 31 60 107 136 163 163 62 30 132 28 220 -6z"/>
<path d="M825 4290 c-17 -28 42 -147 109 -218 46 -50 130 -101 143 -88 9 9 -87 157 -145 223 -63 71 -98 98 -107 83z"/>
<path d="M3637 4003 c-15 -15 -5 -87 18 -137 29 -61 102 -149 116 -140 5 3 8 0 7 -7 -4 -18 53 -48 59 -31 3 6 11 12 19 12 22 0 17 22 -26 107 -43 87 -106 165 -151 188 -32 17 -33 17 -42 8z"/>
<path d="M3481 2804 c-117 -119 -210 -218 -208 -220 2 -2 39 12 82 31 43 20 126 49 185 65 139 38 208 64 250 95 89 65 78 149 -28 216 -25 16 -51 29 -58 29 -6 0 -107 -97 -223 -216z"/>
<path d="M4158 2898 c9 -150 -73 -268 -211 -304 -30 -7 -123 -25 -208 -39 -85 -14 -166 -27 -182 -30 -118 -19 -393 -100 -454 -133 -45 -24 -574 -575 -600 -625 -15 -29 -22 -60 -22 -97 0 -58 22 -128 32 -100 37 108 55 148 92 197 138 191 469 390 757 457 155 36 248 46 523 55 294 11 334 19 400 86 59 58 88 152 89 282 l1 92 -94 95 c-52 52 -99 92 -104 89 -6 -3 -7 -1 -4 4 4 6 1 15 -6 21 -9 8 -11 -3 -9 -50z"/>
<path d="M4779 2235 c-2 -38 -3 -80 -3 -92 0 -12 -2 -20 -4 -18 -2 2 -16 -20 -31 -48 -33 -64 -96 -106 -173 -116 -70 -9 -239 11 -423 49 -356 73 -567 78 -845 18 -236 -51 -476 -177 -579 -305 -47 -59 -102 -157 -117 -212 l-16 -53 83 -84 84 -84 29 57 c54 110 157 208 283 271 64 33 273 101 333 108 19 3 62 9 95 14 33 6 125 10 205 10 169 0 358 -27 635 -88 220 -49 273 -58 445 -73 206 -18 358 -6 478 37 40 15 42 18 42 55 0 81 -38 132 -285 385 l-234 239 -2 -70z"/>
<path d="M3360 1573 c-57 -6 -180 -34 -180 -42 0 -3 -11 -7 -24 -7 -13 -1 -54 -16 -91 -34 -93 -45 -185 -136 -214 -214 -12 -32 -20 -62 -19 -66 2 -4 67 -73 144 -153 l141 -146 5 97 c9 160 58 253 165 309 87 46 156 64 278 70 118 6 239 -11 344 -48 30 -10 59 -16 65 -12 6 3 8 3 5 -1 -9 -10 380 -208 393 -200 6 4 8 3 5 -3 -9 -14 103 -50 204 -64 50 -7 110 -9 149 -5 l65 7 118 125 119 124 -81 0 c-149 0 -337 37 -686 136 -388 110 -524 134 -735 132 -74 -1 -151 -3 -170 -5z"/>
<path d="M3386 1133 c-4 -4 -13 -8 -19 -9 -7 0 -20 -2 -29 -2 -26 -3 -99 -72 -115 -110 -7 -18 -18 -65 -23 -105 l-9 -71 56 -64 56 -63 28 49 c34 60 68 88 121 103 95 25 169 -17 371 -212 85 -81 141 -128 148 -123 7 4 9 3 5 -4 -9 -15 109 -70 169 -77 l50 -6 103 104 103 104 -53 12 c-119 27 -253 108 -477 289 -120 96 -235 168 -279 175 -12 2 -25 6 -28 10 -10 9 -169 9 -178 0z"/>
<path d="M3415 730 c-11 -4 -31 -19 -44 -34 l-24 -25 162 -170 c158 -165 223 -226 267 -249 33 -17 114 -33 135 -27 17 6 16 9 -13 28 -51 35 -91 96 -142 217 -26 62 -59 129 -72 150 -56 84 -195 141 -269 110z"/>
</g>


</svg>